<mxfile host="app.diagrams.net" modified="2021-10-14T14:49:37.683Z" agent="5.0 (Windows NT 10.0; Win64; x64) AppleWebKit/537.36 (KHTML, like Gecko) Chrome/94.0.4606.81 Safari/537.36" etag="cqRf7V93qwBk0vCHPCTt" version="15.4.3" type="github">
  <diagram id="hdg2vdtkORWnQn_9mXNy" name="Page-1">
    <mxGraphModel dx="2858" dy="2258" grid="1" gridSize="10" guides="1" tooltips="1" connect="1" arrows="1" fold="1" page="1" pageScale="1" pageWidth="827" pageHeight="1169" math="0" shadow="0">
      <root>
        <mxCell id="0" />
        <mxCell id="1" parent="0" />
        <mxCell id="4TRkInArZm3En_-aM4AT-1" value="GYM" style="rounded=0;whiteSpace=wrap;html=1;hachureGap=4;pointerEvents=0;fontSize=16;fontStyle=1" parent="1" vertex="1">
          <mxGeometry x="470" y="332.5" width="150" height="100" as="geometry" />
        </mxCell>
        <mxCell id="4TRkInArZm3En_-aM4AT-2" value="MANAGE" style="rhombus;whiteSpace=wrap;html=1;hachureGap=4;pointerEvents=0;" parent="1" vertex="1">
          <mxGeometry x="130" y="320" width="140" height="125" as="geometry" />
        </mxCell>
        <mxCell id="4TRkInArZm3En_-aM4AT-4" value="" style="endArrow=none;html=1;sourcePerimeterSpacing=8;targetPerimeterSpacing=8;exitX=0;exitY=0.5;exitDx=0;exitDy=0;entryX=0.5;entryY=0;entryDx=0;entryDy=0;" parent="1" source="4TRkInArZm3En_-aM4AT-2" target="4TRkInArZm3En_-aM4AT-5" edge="1">
          <mxGeometry width="50" height="50" relative="1" as="geometry">
            <mxPoint x="370" y="220" as="sourcePoint" />
            <mxPoint x="260" y="220" as="targetPoint" />
          </mxGeometry>
        </mxCell>
        <mxCell id="4TRkInArZm3En_-aM4AT-5" value="MANAGER" style="rounded=0;whiteSpace=wrap;html=1;hachureGap=4;pointerEvents=0;direction=south;fontSize=16;fontStyle=1" parent="1" vertex="1">
          <mxGeometry x="-175" y="330" width="150" height="100" as="geometry" />
        </mxCell>
        <mxCell id="4TRkInArZm3En_-aM4AT-6" value="&lt;u&gt;NI_NR&lt;/u&gt;" style="ellipse;whiteSpace=wrap;html=1;hachureGap=4;pointerEvents=0;autosize=0;" parent="1" vertex="1">
          <mxGeometry x="-235" y="-100" width="95" height="80" as="geometry" />
        </mxCell>
        <mxCell id="4TRkInArZm3En_-aM4AT-10" value="PASSPORT_NR" style="ellipse;whiteSpace=wrap;html=1;hachureGap=4;pointerEvents=0;autosize=0;" parent="1" vertex="1">
          <mxGeometry x="-20" y="150" width="95" height="80" as="geometry" />
        </mxCell>
        <mxCell id="4TRkInArZm3En_-aM4AT-11" value="EMAIL" style="ellipse;whiteSpace=wrap;html=1;hachureGap=4;pointerEvents=0;autosize=0;" parent="1" vertex="1">
          <mxGeometry x="-461" y="20" width="95" height="80" as="geometry" />
        </mxCell>
        <mxCell id="4TRkInArZm3En_-aM4AT-13" value="NAME" style="ellipse;whiteSpace=wrap;html=1;hachureGap=4;pointerEvents=0;autosize=0;" parent="1" vertex="1">
          <mxGeometry x="-370" y="-85" width="95" height="80" as="geometry" />
        </mxCell>
        <mxCell id="4TRkInArZm3En_-aM4AT-17" value="GENDER" style="ellipse;whiteSpace=wrap;html=1;hachureGap=4;pointerEvents=0;autosize=0;" parent="1" vertex="1">
          <mxGeometry x="-120" y="-50" width="95" height="80" as="geometry" />
        </mxCell>
        <mxCell id="4TRkInArZm3En_-aM4AT-19" value="ADDRESS" style="ellipse;whiteSpace=wrap;html=1;hachureGap=4;pointerEvents=0;autosize=0;" parent="1" vertex="1">
          <mxGeometry x="-40" y="40" width="95" height="80" as="geometry" />
        </mxCell>
        <mxCell id="4TRkInArZm3En_-aM4AT-23" value="PHONE_NR" style="ellipse;whiteSpace=wrap;html=1;hachureGap=4;pointerEvents=0;autosize=0;" parent="1" vertex="1">
          <mxGeometry x="-330" y="240" width="95" height="80" as="geometry" />
        </mxCell>
        <mxCell id="4TRkInArZm3En_-aM4AT-26" value="ADDRESS" style="ellipse;whiteSpace=wrap;html=1;hachureGap=4;pointerEvents=0;" parent="1" vertex="1">
          <mxGeometry x="420" width="120" height="80" as="geometry" />
        </mxCell>
        <mxCell id="4TRkInArZm3En_-aM4AT-29" value="&lt;u&gt;VAT NR&lt;/u&gt;" style="ellipse;whiteSpace=wrap;html=1;hachureGap=4;pointerEvents=0;" parent="1" vertex="1">
          <mxGeometry x="560" y="-110" width="120" height="80" as="geometry" />
        </mxCell>
        <mxCell id="4TRkInArZm3En_-aM4AT-30" value="UNIQUE_NAME" style="ellipse;whiteSpace=wrap;html=1;hachureGap=4;pointerEvents=0;" parent="1" vertex="1">
          <mxGeometry x="270" y="-110" width="120" height="80" as="geometry" />
        </mxCell>
        <mxCell id="4TRkInArZm3En_-aM4AT-31" value="OPENING DATE" style="ellipse;whiteSpace=wrap;html=1;hachureGap=4;pointerEvents=0;" parent="1" vertex="1">
          <mxGeometry x="270" width="120" height="80" as="geometry" />
        </mxCell>
        <mxCell id="4TRkInArZm3En_-aM4AT-32" value="PHONE" style="ellipse;whiteSpace=wrap;html=1;hachureGap=4;pointerEvents=0;" parent="1" vertex="1">
          <mxGeometry x="413" y="-100" width="120" height="80" as="geometry" />
        </mxCell>
        <mxCell id="4TRkInArZm3En_-aM4AT-33" value="EMAIL" style="ellipse;whiteSpace=wrap;html=1;hachureGap=4;pointerEvents=0;" parent="1" vertex="1">
          <mxGeometry x="710" y="10" width="120" height="80" as="geometry" />
        </mxCell>
        <mxCell id="4TRkInArZm3En_-aM4AT-34" value="OPENING TIME" style="ellipse;whiteSpace=wrap;html=1;hachureGap=4;pointerEvents=0;" parent="1" vertex="1">
          <mxGeometry x="470" y="-230" width="120" height="80" as="geometry" />
        </mxCell>
        <mxCell id="4TRkInArZm3En_-aM4AT-42" value="TYPE_OF_SPORT" style="rounded=0;whiteSpace=wrap;html=1;hachureGap=4;pointerEvents=0;fontSize=16;fontStyle=1" parent="1" vertex="1">
          <mxGeometry x="1185" y="560" width="150" height="100" as="geometry" />
        </mxCell>
        <mxCell id="4TRkInArZm3En_-aM4AT-43" value="NAME" style="ellipse;whiteSpace=wrap;html=1;hachureGap=4;pointerEvents=0;" parent="1" vertex="1">
          <mxGeometry x="855" y="670" width="120" height="80" as="geometry" />
        </mxCell>
        <mxCell id="4TRkInArZm3En_-aM4AT-44" value="DESCRIPTION" style="ellipse;whiteSpace=wrap;html=1;hachureGap=4;pointerEvents=0;" parent="1" vertex="1">
          <mxGeometry x="990" y="840" width="120" height="80" as="geometry" />
        </mxCell>
        <mxCell id="4TRkInArZm3En_-aM4AT-45" value="HEALTH BENEFITS" style="ellipse;whiteSpace=wrap;html=1;hachureGap=4;pointerEvents=0;" parent="1" vertex="1">
          <mxGeometry x="1121" y="840" width="120" height="80" as="geometry" />
        </mxCell>
        <mxCell id="4TRkInArZm3En_-aM4AT-46" value="RECOMMENDED AGE GROUP" style="ellipse;whiteSpace=wrap;html=1;hachureGap=4;pointerEvents=0;" parent="1" vertex="1">
          <mxGeometry x="1280" y="680" width="120" height="80" as="geometry" />
        </mxCell>
        <mxCell id="4TRkInArZm3En_-aM4AT-47" value="EXERCISE DURATION" style="ellipse;whiteSpace=wrap;html=1;hachureGap=4;pointerEvents=0;" parent="1" vertex="1">
          <mxGeometry x="1280" y="590" width="120" height="80" as="geometry" />
        </mxCell>
        <mxCell id="4TRkInArZm3En_-aM4AT-48" value="LEVEL OF PHYSICAL DEMAND" style="ellipse;whiteSpace=wrap;html=1;hachureGap=4;pointerEvents=0;" parent="1" vertex="1">
          <mxGeometry x="870" y="780" width="120" height="80" as="geometry" />
        </mxCell>
        <mxCell id="4TRkInArZm3En_-aM4AT-50" value="" style="endArrow=none;html=1;startSize=14;endSize=14;sourcePerimeterSpacing=8;targetPerimeterSpacing=8;exitX=1;exitY=0.5;exitDx=0;exitDy=0;entryX=0;entryY=0.5;entryDx=0;entryDy=0;" parent="1" source="4TRkInArZm3En_-aM4AT-43" target="4TRkInArZm3En_-aM4AT-42" edge="1">
          <mxGeometry width="50" height="50" relative="1" as="geometry">
            <mxPoint x="390" y="690" as="sourcePoint" />
            <mxPoint x="440" y="640" as="targetPoint" />
          </mxGeometry>
        </mxCell>
        <mxCell id="4TRkInArZm3En_-aM4AT-51" value="" style="endArrow=none;html=1;startSize=14;endSize=14;sourcePerimeterSpacing=8;targetPerimeterSpacing=8;exitX=1;exitY=0;exitDx=0;exitDy=0;entryX=0;entryY=1;entryDx=0;entryDy=0;" parent="1" source="4TRkInArZm3En_-aM4AT-48" target="4TRkInArZm3En_-aM4AT-42" edge="1">
          <mxGeometry width="50" height="50" relative="1" as="geometry">
            <mxPoint x="390" y="690" as="sourcePoint" />
            <mxPoint x="440" y="640" as="targetPoint" />
          </mxGeometry>
        </mxCell>
        <mxCell id="4TRkInArZm3En_-aM4AT-52" value="" style="endArrow=none;html=1;startSize=14;endSize=14;sourcePerimeterSpacing=8;targetPerimeterSpacing=8;exitX=0.5;exitY=0;exitDx=0;exitDy=0;entryX=0.5;entryY=1;entryDx=0;entryDy=0;" parent="1" source="4TRkInArZm3En_-aM4AT-44" target="4TRkInArZm3En_-aM4AT-42" edge="1">
          <mxGeometry width="50" height="50" relative="1" as="geometry">
            <mxPoint x="400" y="890" as="sourcePoint" />
            <mxPoint x="450" y="840" as="targetPoint" />
          </mxGeometry>
        </mxCell>
        <mxCell id="4TRkInArZm3En_-aM4AT-53" value="" style="endArrow=none;html=1;startSize=14;endSize=14;sourcePerimeterSpacing=8;targetPerimeterSpacing=8;entryX=0;entryY=0;entryDx=0;entryDy=0;exitX=0.667;exitY=1.017;exitDx=0;exitDy=0;exitPerimeter=0;" parent="1" source="4TRkInArZm3En_-aM4AT-42" target="4TRkInArZm3En_-aM4AT-45" edge="1">
          <mxGeometry width="50" height="50" relative="1" as="geometry">
            <mxPoint x="430" y="720" as="sourcePoint" />
            <mxPoint x="440" y="640" as="targetPoint" />
          </mxGeometry>
        </mxCell>
        <mxCell id="4TRkInArZm3En_-aM4AT-54" value="" style="endArrow=none;html=1;startSize=14;endSize=14;sourcePerimeterSpacing=8;targetPerimeterSpacing=8;entryX=1;entryY=0.5;entryDx=0;entryDy=0;exitX=0;exitY=0.5;exitDx=0;exitDy=0;" parent="1" source="4TRkInArZm3En_-aM4AT-46" target="4TRkInArZm3En_-aM4AT-42" edge="1">
          <mxGeometry width="50" height="50" relative="1" as="geometry">
            <mxPoint x="390" y="690" as="sourcePoint" />
            <mxPoint x="440" y="640" as="targetPoint" />
          </mxGeometry>
        </mxCell>
        <mxCell id="TNOlmFblQoI8VBXt5ZoZ-1" value="CITY" style="ellipse;whiteSpace=wrap;html=1;" parent="1" vertex="1">
          <mxGeometry x="707" y="-120" width="120" height="80" as="geometry" />
        </mxCell>
        <mxCell id="TNOlmFblQoI8VBXt5ZoZ-3" value="CLOSING TIME" style="ellipse;whiteSpace=wrap;html=1;" parent="1" vertex="1">
          <mxGeometry x="570" width="120" height="80" as="geometry" />
        </mxCell>
        <mxCell id="TNOlmFblQoI8VBXt5ZoZ-7" value="SPACE" style="rounded=0;whiteSpace=wrap;html=1;strokeWidth=5;strokeColor=#FF0000;fontSize=16;fontStyle=1" parent="1" vertex="1">
          <mxGeometry x="1165" y="150" width="160" height="100" as="geometry" />
        </mxCell>
        <mxCell id="TNOlmFblQoI8VBXt5ZoZ-8" value="&lt;span&gt;&lt;i&gt;&lt;font color=&quot;#ff0000&quot;&gt;NAME&lt;/font&gt;&lt;/i&gt;&lt;/span&gt;" style="ellipse;whiteSpace=wrap;html=1;fontStyle=4" parent="1" vertex="1">
          <mxGeometry x="1090" y="-5" width="120" height="80" as="geometry" />
        </mxCell>
        <mxCell id="TNOlmFblQoI8VBXt5ZoZ-10" value="" style="endArrow=none;html=1;exitX=0.75;exitY=0;exitDx=0;exitDy=0;" parent="1" source="TNOlmFblQoI8VBXt5ZoZ-7" target="TNOlmFblQoI8VBXt5ZoZ-8" edge="1">
          <mxGeometry width="50" height="50" relative="1" as="geometry">
            <mxPoint x="1130" y="490" as="sourcePoint" />
            <mxPoint x="1180" y="440" as="targetPoint" />
          </mxGeometry>
        </mxCell>
        <mxCell id="TNOlmFblQoI8VBXt5ZoZ-13" value="INCLUDES" style="rhombus;whiteSpace=wrap;html=1;strokeWidth=5;strokeColor=#FF0000;" parent="1" vertex="1">
          <mxGeometry x="910" y="170" width="150" height="125" as="geometry" />
        </mxCell>
        <mxCell id="TNOlmFblQoI8VBXt5ZoZ-29" value="" style="endArrow=none;html=1;fillColor=#000000;exitX=0.5;exitY=0;exitDx=0;exitDy=0;entryX=0.5;entryY=1;entryDx=0;entryDy=0;" parent="1" source="TNOlmFblQoI8VBXt5ZoZ-30" target="TNOlmFblQoI8VBXt5ZoZ-7" edge="1">
          <mxGeometry width="50" height="50" relative="1" as="geometry">
            <mxPoint x="1070" y="590" as="sourcePoint" />
            <mxPoint x="1060" y="320" as="targetPoint" />
          </mxGeometry>
        </mxCell>
        <mxCell id="TNOlmFblQoI8VBXt5ZoZ-34" value="" style="endArrow=none;html=1;fillColor=#000000;entryX=0.5;entryY=0;entryDx=0;entryDy=0;exitX=0.5;exitY=1;exitDx=0;exitDy=0;" parent="1" source="TNOlmFblQoI8VBXt5ZoZ-30" target="4TRkInArZm3En_-aM4AT-42" edge="1">
          <mxGeometry width="50" height="50" relative="1" as="geometry">
            <mxPoint x="1380" y="260" as="sourcePoint" />
            <mxPoint x="820" y="510" as="targetPoint" />
          </mxGeometry>
        </mxCell>
        <mxCell id="TNOlmFblQoI8VBXt5ZoZ-56" value="EQUIPMENT" style="rounded=0;whiteSpace=wrap;html=1;fontSize=16;fontStyle=1" parent="1" vertex="1">
          <mxGeometry x="1585" y="130" width="160" height="100" as="geometry" />
        </mxCell>
        <mxCell id="TNOlmFblQoI8VBXt5ZoZ-57" value="HAS" style="rhombus;whiteSpace=wrap;html=1;" parent="1" vertex="1">
          <mxGeometry x="1350" y="135" width="142.5" height="130" as="geometry" />
        </mxCell>
        <mxCell id="TNOlmFblQoI8VBXt5ZoZ-58" value="" style="endArrow=none;html=1;fillColor=#000000;entryX=1;entryY=0.5;entryDx=0;entryDy=0;exitX=0;exitY=0.5;exitDx=0;exitDy=0;" parent="1" source="TNOlmFblQoI8VBXt5ZoZ-57" target="TNOlmFblQoI8VBXt5ZoZ-7" edge="1">
          <mxGeometry width="50" height="50" relative="1" as="geometry">
            <mxPoint x="840" y="510" as="sourcePoint" />
            <mxPoint x="890" y="460" as="targetPoint" />
          </mxGeometry>
        </mxCell>
        <mxCell id="TNOlmFblQoI8VBXt5ZoZ-59" value="" style="endArrow=none;html=1;fillColor=#000000;exitX=1;exitY=0.5;exitDx=0;exitDy=0;entryX=0;entryY=0.5;entryDx=0;entryDy=0;" parent="1" source="TNOlmFblQoI8VBXt5ZoZ-57" target="TNOlmFblQoI8VBXt5ZoZ-56" edge="1">
          <mxGeometry width="50" height="50" relative="1" as="geometry">
            <mxPoint x="840" y="510" as="sourcePoint" />
            <mxPoint x="890" y="460" as="targetPoint" />
          </mxGeometry>
        </mxCell>
        <mxCell id="TNOlmFblQoI8VBXt5ZoZ-60" value="NAME" style="ellipse;whiteSpace=wrap;html=1;" parent="1" vertex="1">
          <mxGeometry x="1520" y="50" width="120" height="80" as="geometry" />
        </mxCell>
        <mxCell id="TNOlmFblQoI8VBXt5ZoZ-61" value="NR" style="ellipse;whiteSpace=wrap;html=1;" parent="1" vertex="1">
          <mxGeometry x="1310" y="25" width="120" height="80" as="geometry" />
        </mxCell>
        <mxCell id="TNOlmFblQoI8VBXt5ZoZ-64" value="" style="endArrow=none;html=1;fillColor=#000000;exitX=0.593;exitY=-0.019;exitDx=0;exitDy=0;exitPerimeter=0;" parent="1" source="TNOlmFblQoI8VBXt5ZoZ-56" target="TNOlmFblQoI8VBXt5ZoZ-60" edge="1">
          <mxGeometry width="50" height="50" relative="1" as="geometry">
            <mxPoint x="930" y="510" as="sourcePoint" />
            <mxPoint x="980" y="460" as="targetPoint" />
          </mxGeometry>
        </mxCell>
        <mxCell id="TNOlmFblQoI8VBXt5ZoZ-65" value="" style="endArrow=none;html=1;fillColor=#000000;" parent="1" source="TNOlmFblQoI8VBXt5ZoZ-57" target="TNOlmFblQoI8VBXt5ZoZ-61" edge="1">
          <mxGeometry width="50" height="50" relative="1" as="geometry">
            <mxPoint x="930" y="510" as="sourcePoint" />
            <mxPoint x="980" y="460" as="targetPoint" />
          </mxGeometry>
        </mxCell>
        <mxCell id="zpkmHXnzWcy7r22Rmnru-4" value="" style="endArrow=none;html=1;rounded=0;edgeStyle=orthogonalEdgeStyle;entryX=0;entryY=0.5;entryDx=0;entryDy=0;" parent="1" target="TNOlmFblQoI8VBXt5ZoZ-13" edge="1">
          <mxGeometry relative="1" as="geometry">
            <mxPoint x="690" y="220" as="sourcePoint" />
            <mxPoint x="710" y="290" as="targetPoint" />
            <Array as="points">
              <mxPoint x="690" y="235" />
            </Array>
          </mxGeometry>
        </mxCell>
        <mxCell id="zpkmHXnzWcy7r22Rmnru-5" value="AREA(m&lt;sup&gt;2&lt;/sup&gt;)" style="ellipse;whiteSpace=wrap;html=1;" parent="1" vertex="1">
          <mxGeometry x="930" y="10" width="120" height="80" as="geometry" />
        </mxCell>
        <mxCell id="zpkmHXnzWcy7r22Rmnru-7" value="" style="endArrow=none;html=1;rounded=0;edgeStyle=orthogonalEdgeStyle;exitX=0.5;exitY=1;exitDx=0;exitDy=0;entryX=0.25;entryY=0;entryDx=0;entryDy=0;" parent="1" source="zpkmHXnzWcy7r22Rmnru-5" target="TNOlmFblQoI8VBXt5ZoZ-7" edge="1">
          <mxGeometry relative="1" as="geometry">
            <mxPoint x="1240" y="190" as="sourcePoint" />
            <mxPoint x="1400" y="190" as="targetPoint" />
          </mxGeometry>
        </mxCell>
        <mxCell id="zpkmHXnzWcy7r22Rmnru-8" value="&lt;u&gt;ID&lt;/u&gt;" style="ellipse;whiteSpace=wrap;html=1;" parent="1" vertex="1">
          <mxGeometry x="1510" y="290" width="120" height="80" as="geometry" />
        </mxCell>
        <mxCell id="zpkmHXnzWcy7r22Rmnru-9" value="" style="endArrow=none;html=1;rounded=0;edgeStyle=orthogonalEdgeStyle;exitX=0.5;exitY=1;exitDx=0;exitDy=0;" parent="1" source="TNOlmFblQoI8VBXt5ZoZ-56" target="zpkmHXnzWcy7r22Rmnru-8" edge="1">
          <mxGeometry relative="1" as="geometry">
            <mxPoint x="1240" y="290" as="sourcePoint" />
            <mxPoint x="1400" y="290" as="targetPoint" />
          </mxGeometry>
        </mxCell>
        <mxCell id="zpkmHXnzWcy7r22Rmnru-12" value="" style="endArrow=none;html=1;rounded=0;edgeStyle=orthogonalEdgeStyle;exitX=0.75;exitY=0;exitDx=0;exitDy=0;entryX=0;entryY=0.5;entryDx=0;entryDy=0;" parent="1" source="4TRkInArZm3En_-aM4AT-42" target="4TRkInArZm3En_-aM4AT-47" edge="1">
          <mxGeometry relative="1" as="geometry">
            <mxPoint x="830" y="490" as="sourcePoint" />
            <mxPoint x="990" y="490" as="targetPoint" />
          </mxGeometry>
        </mxCell>
        <mxCell id="eBdyAH_MPgxRvwM_sHwe-2" value="" style="edgeStyle=segmentEdgeStyle;endArrow=classic;html=1;rounded=0;entryX=1;entryY=0.5;entryDx=0;entryDy=0;exitX=0;exitY=0.75;exitDx=0;exitDy=0;strokeColor=#FF0000;strokeWidth=6;" parent="1" source="TNOlmFblQoI8VBXt5ZoZ-7" target="TNOlmFblQoI8VBXt5ZoZ-13" edge="1">
          <mxGeometry width="50" height="50" relative="1" as="geometry">
            <mxPoint x="890" y="430" as="sourcePoint" />
            <mxPoint x="940" y="380" as="targetPoint" />
          </mxGeometry>
        </mxCell>
        <mxCell id="eBdyAH_MPgxRvwM_sHwe-4" value="" style="edgeStyle=segmentEdgeStyle;endArrow=classic;html=1;rounded=0;entryX=1;entryY=0.5;entryDx=0;entryDy=0;exitX=0;exitY=0.5;exitDx=0;exitDy=0;strokeColor=#000000;strokeWidth=5;startArrow=none;" parent="1" source="4TRkInArZm3En_-aM4AT-1" target="4TRkInArZm3En_-aM4AT-2" edge="1">
          <mxGeometry width="50" height="50" relative="1" as="geometry">
            <mxPoint x="550" y="219.41" as="sourcePoint" />
            <mxPoint x="440" y="219.41" as="targetPoint" />
            <Array as="points" />
          </mxGeometry>
        </mxCell>
        <mxCell id="eBdyAH_MPgxRvwM_sHwe-5" value="&lt;u&gt;SPORT_ID&lt;/u&gt;" style="ellipse;whiteSpace=wrap;html=1;hachureGap=4;pointerEvents=0;" parent="1" vertex="1">
          <mxGeometry x="1280" y="800" width="120" height="80" as="geometry" />
        </mxCell>
        <mxCell id="eBdyAH_MPgxRvwM_sHwe-6" value="" style="endArrow=none;html=1;startSize=14;endSize=14;sourcePerimeterSpacing=8;targetPerimeterSpacing=8;entryX=0;entryY=0;entryDx=0;entryDy=0;exitX=0.828;exitY=0.985;exitDx=0;exitDy=0;exitPerimeter=0;" parent="1" source="4TRkInArZm3En_-aM4AT-42" target="eBdyAH_MPgxRvwM_sHwe-5" edge="1">
          <mxGeometry width="50" height="50" relative="1" as="geometry">
            <mxPoint x="1150.04" y="761.0200000000004" as="sourcePoint" />
            <mxPoint x="1148.573593128831" y="861.7157287525538" as="targetPoint" />
          </mxGeometry>
        </mxCell>
        <mxCell id="ZJh7k_RnWvVlNWQJP8Ni-2" value="" style="endArrow=none;html=1;fillColor=#000000;entryX=0;entryY=0;entryDx=0;entryDy=0;exitX=0.75;exitY=1;exitDx=0;exitDy=0;" edge="1" parent="1" source="4TRkInArZm3En_-aM4AT-1" target="ZJh7k_RnWvVlNWQJP8Ni-1">
          <mxGeometry width="50" height="50" relative="1" as="geometry">
            <mxPoint x="1130" y="490" as="sourcePoint" />
            <mxPoint x="1130" y="700" as="targetPoint" />
          </mxGeometry>
        </mxCell>
        <mxCell id="ZJh7k_RnWvVlNWQJP8Ni-3" value="" style="endArrow=none;html=1;fillColor=#000000;startArrow=none;" edge="1" parent="1" source="TNOlmFblQoI8VBXt5ZoZ-30" target="4TRkInArZm3En_-aM4AT-42">
          <mxGeometry width="50" height="50" relative="1" as="geometry">
            <mxPoint x="1140" y="500" as="sourcePoint" />
            <mxPoint x="1140" y="710" as="targetPoint" />
          </mxGeometry>
        </mxCell>
        <mxCell id="ZJh7k_RnWvVlNWQJP8Ni-5" value="&lt;h1 style=&quot;font-size: 20px&quot;&gt;&lt;font style=&quot;font-size: 20px ; font-weight: normal&quot;&gt;RI1 - UNIQUE_NAME &#39;e uma chave candidata&lt;/font&gt;&lt;/h1&gt;&lt;h1 style=&quot;font-size: 20px&quot;&gt;&lt;font style=&quot;font-size: 20px ; font-weight: normal&quot;&gt;RI2 - UNIQUE_NAME deve incluir CITY&lt;br&gt;RI3 - PASSPORT_NR &#39;e uma chave candidata&lt;/font&gt;&lt;/h1&gt;&lt;div style=&quot;font-size: 20px&quot;&gt;&lt;font style=&quot;font-size: 20px&quot;&gt;RI4 - GYM AND TYPE_OF_SPORT AND SPACE estao numa malha - GYM can only OFFER TYPE_OF_SPORT if GYM INCLUDES SPACE that IS_SUITABLE for TYPE_OF_SPORT&lt;/font&gt;&lt;/div&gt;" style="text;html=1;strokeColor=none;fillColor=none;spacing=5;spacingTop=-20;whiteSpace=wrap;overflow=hidden;rounded=0;fontColor=#FF0000;" vertex="1" parent="1">
          <mxGeometry y="715" width="570" height="250" as="geometry" />
        </mxCell>
        <mxCell id="ZJh7k_RnWvVlNWQJP8Ni-7" value="CAPACITY" style="ellipse;whiteSpace=wrap;html=1;hachureGap=4;pointerEvents=0;" vertex="1" parent="1">
          <mxGeometry x="1220" y="430" width="120" height="80" as="geometry" />
        </mxCell>
        <mxCell id="ZJh7k_RnWvVlNWQJP8Ni-8" value="" style="endArrow=none;html=1;fillColor=#000000;exitX=1;exitY=0.5;exitDx=0;exitDy=0;entryX=0;entryY=0.5;entryDx=0;entryDy=0;" edge="1" parent="1" source="TNOlmFblQoI8VBXt5ZoZ-30" target="ZJh7k_RnWvVlNWQJP8Ni-7">
          <mxGeometry width="50" height="50" relative="1" as="geometry">
            <mxPoint x="1130" y="440" as="sourcePoint" />
            <mxPoint x="1130" y="260" as="targetPoint" />
          </mxGeometry>
        </mxCell>
        <mxCell id="ZJh7k_RnWvVlNWQJP8Ni-1" value="OFFERS" style="rhombus;whiteSpace=wrap;html=1;" vertex="1" parent="1">
          <mxGeometry x="705" y="455" width="150" height="130" as="geometry" />
        </mxCell>
        <mxCell id="ZJh7k_RnWvVlNWQJP8Ni-10" value="" style="edgeStyle=segmentEdgeStyle;endArrow=none;html=1;rounded=0;entryX=1;entryY=0.5;entryDx=0;entryDy=0;exitX=0;exitY=0.5;exitDx=0;exitDy=0;strokeColor=#000000;strokeWidth=5;startArrow=none;" edge="1" parent="1" source="TNOlmFblQoI8VBXt5ZoZ-30" target="ZJh7k_RnWvVlNWQJP8Ni-1">
          <mxGeometry width="50" height="50" relative="1" as="geometry">
            <mxPoint x="665" y="190" as="sourcePoint" />
            <mxPoint x="350" y="597.5" as="targetPoint" />
            <Array as="points" />
          </mxGeometry>
        </mxCell>
        <mxCell id="ZJh7k_RnWvVlNWQJP8Ni-11" value="" style="endArrow=none;html=1;fillColor=#000000;" edge="1" parent="1" source="ZJh7k_RnWvVlNWQJP8Ni-1" target="TNOlmFblQoI8VBXt5ZoZ-30">
          <mxGeometry width="50" height="50" relative="1" as="geometry">
            <mxPoint x="648.1516976998905" y="596.6018619934284" as="sourcePoint" />
            <mxPoint x="1185" y="608.3576642335765" as="targetPoint" />
          </mxGeometry>
        </mxCell>
        <mxCell id="TNOlmFblQoI8VBXt5ZoZ-30" value="IS_SUITABLE" style="rhombus;whiteSpace=wrap;html=1;" parent="1" vertex="1">
          <mxGeometry x="1230" y="420" width="150" height="130" as="geometry" />
        </mxCell>
        <mxCell id="ZJh7k_RnWvVlNWQJP8Ni-15" value="BIRTH_DATE" style="ellipse;whiteSpace=wrap;html=1;hachureGap=4;pointerEvents=0;autosize=0;" vertex="1" parent="1">
          <mxGeometry x="-440" y="130" width="95" height="80" as="geometry" />
        </mxCell>
        <mxCell id="ZJh7k_RnWvVlNWQJP8Ni-18" value="" style="endArrow=none;html=1;sourcePerimeterSpacing=8;targetPerimeterSpacing=8;entryX=0;entryY=1;entryDx=0;entryDy=0;exitX=0;exitY=0.5;exitDx=0;exitDy=0;" edge="1" parent="1" source="4TRkInArZm3En_-aM4AT-5" target="4TRkInArZm3En_-aM4AT-10">
          <mxGeometry width="50" height="50" relative="1" as="geometry">
            <mxPoint x="220" y="607.5" as="sourcePoint" />
            <mxPoint x="-15" y="390" as="targetPoint" />
          </mxGeometry>
        </mxCell>
        <mxCell id="ZJh7k_RnWvVlNWQJP8Ni-19" value="" style="endArrow=none;html=1;sourcePerimeterSpacing=8;targetPerimeterSpacing=8;entryX=1;entryY=1;entryDx=0;entryDy=0;exitX=0;exitY=0.5;exitDx=0;exitDy=0;" edge="1" parent="1" source="4TRkInArZm3En_-aM4AT-5" target="4TRkInArZm3En_-aM4AT-23">
          <mxGeometry width="50" height="50" relative="1" as="geometry">
            <mxPoint x="-65.53125" y="332" as="sourcePoint" />
            <mxPoint x="-22.5" y="230" as="targetPoint" />
          </mxGeometry>
        </mxCell>
        <mxCell id="ZJh7k_RnWvVlNWQJP8Ni-20" value="" style="endArrow=none;html=1;sourcePerimeterSpacing=8;targetPerimeterSpacing=8;entryX=1;entryY=0.5;entryDx=0;entryDy=0;exitX=0;exitY=0.5;exitDx=0;exitDy=0;" edge="1" parent="1" source="4TRkInArZm3En_-aM4AT-5" target="ZJh7k_RnWvVlNWQJP8Ni-15">
          <mxGeometry width="50" height="50" relative="1" as="geometry">
            <mxPoint x="-55.53125" y="342" as="sourcePoint" />
            <mxPoint x="-12.5" y="240" as="targetPoint" />
          </mxGeometry>
        </mxCell>
        <mxCell id="ZJh7k_RnWvVlNWQJP8Ni-21" value="" style="endArrow=none;html=1;sourcePerimeterSpacing=8;targetPerimeterSpacing=8;entryX=1;entryY=0.5;entryDx=0;entryDy=0;exitX=0;exitY=0.5;exitDx=0;exitDy=0;" edge="1" parent="1" source="4TRkInArZm3En_-aM4AT-5" target="4TRkInArZm3En_-aM4AT-11">
          <mxGeometry width="50" height="50" relative="1" as="geometry">
            <mxPoint x="-45.53125" y="352" as="sourcePoint" />
            <mxPoint x="-2.5" y="250" as="targetPoint" />
          </mxGeometry>
        </mxCell>
        <mxCell id="ZJh7k_RnWvVlNWQJP8Ni-22" value="" style="endArrow=none;html=1;sourcePerimeterSpacing=8;targetPerimeterSpacing=8;entryX=0.728;entryY=0.98;entryDx=0;entryDy=0;entryPerimeter=0;exitX=0;exitY=0.5;exitDx=0;exitDy=0;" edge="1" parent="1" source="4TRkInArZm3En_-aM4AT-5" target="4TRkInArZm3En_-aM4AT-13">
          <mxGeometry width="50" height="50" relative="1" as="geometry">
            <mxPoint x="-100" y="340" as="sourcePoint" />
            <mxPoint x="7.5" y="260" as="targetPoint" />
          </mxGeometry>
        </mxCell>
        <mxCell id="ZJh7k_RnWvVlNWQJP8Ni-23" value="" style="endArrow=none;html=1;sourcePerimeterSpacing=8;targetPerimeterSpacing=8;entryX=0.5;entryY=1;entryDx=0;entryDy=0;exitX=0;exitY=0.5;exitDx=0;exitDy=0;" edge="1" parent="1" source="4TRkInArZm3En_-aM4AT-5" target="4TRkInArZm3En_-aM4AT-6">
          <mxGeometry width="50" height="50" relative="1" as="geometry">
            <mxPoint x="-25.53125" y="372" as="sourcePoint" />
            <mxPoint x="17.5" y="270" as="targetPoint" />
          </mxGeometry>
        </mxCell>
        <mxCell id="ZJh7k_RnWvVlNWQJP8Ni-24" value="" style="endArrow=none;html=1;sourcePerimeterSpacing=8;targetPerimeterSpacing=8;exitX=0;exitY=0.5;exitDx=0;exitDy=0;entryX=0.5;entryY=1;entryDx=0;entryDy=0;" edge="1" parent="1" source="4TRkInArZm3En_-aM4AT-5" target="4TRkInArZm3En_-aM4AT-17">
          <mxGeometry width="50" height="50" relative="1" as="geometry">
            <mxPoint x="-15.53125" y="382" as="sourcePoint" />
            <mxPoint x="-76" y="50" as="targetPoint" />
          </mxGeometry>
        </mxCell>
        <mxCell id="ZJh7k_RnWvVlNWQJP8Ni-25" value="" style="endArrow=none;html=1;sourcePerimeterSpacing=8;targetPerimeterSpacing=8;entryX=0;entryY=1;entryDx=0;entryDy=0;exitX=0;exitY=0.5;exitDx=0;exitDy=0;" edge="1" parent="1" source="4TRkInArZm3En_-aM4AT-5" target="4TRkInArZm3En_-aM4AT-19">
          <mxGeometry width="50" height="50" relative="1" as="geometry">
            <mxPoint x="-5.53125" y="392" as="sourcePoint" />
            <mxPoint x="37.5" y="290" as="targetPoint" />
          </mxGeometry>
        </mxCell>
      </root>
    </mxGraphModel>
  </diagram>
</mxfile>
